<svg width="24" height="24" viewBox="0 0 24 24" fill="none" xmlns="http://www.w3.org/2000/svg">
<path fill-rule="evenodd" clip-rule="evenodd" d="M22 12C22 17.5228 17.5228 22 12 22C6.47715 22 2 17.5228 2 12C2 6.47715 6.47715 2 12 2C17.5228 2 22 6.47715 22 12ZM19.9381 13C19.446 16.9463 16.0796 20 12 20C7.92038 20 4.55399 16.9463 4.06189 13H8.12602C8.57006 14.7252 10.1362 16 12 16C13.8638 16 15.4299 14.7252 15.874 13H19.9381ZM19.9381 11H15.874C15.4299 9.27477 13.8638 8 12 8C10.1362 8 8.57006 9.27477 8.12602 11H4.06189C4.55399 7.05369 7.92038 4 12 4C16.0796 4 19.446 7.05369 19.9381 11ZM14 12C14 13.1046 13.1046 14 12 14C10.8954 14 10 13.1046 10 12C10 10.8954 10.8954 10 12 10C13.1046 10 14 10.8954 14 12Z" fill="#2B3140"/>
</svg>
